<?xml version="1.0" encoding="utf-8"?>
<!-- Generator: Adobe Illustrator 16.0.0, SVG Export Plug-In . SVG Version: 6.00 Build 0)  -->
<!DOCTYPE svg PUBLIC "-//W3C//DTD SVG 1.1//EN" "http://www.w3.org/Graphics/SVG/1.1/DTD/svg11.dtd" [
	<!ENTITY ns_extend "http://ns.adobe.com/Extensibility/1.0/">
	<!ENTITY ns_ai "http://ns.adobe.com/AdobeIllustrator/10.0/">
	<!ENTITY ns_graphs "http://ns.adobe.com/Graphs/1.0/">
	<!ENTITY ns_vars "http://ns.adobe.com/Variables/1.0/">
	<!ENTITY ns_imrep "http://ns.adobe.com/ImageReplacement/1.0/">
	<!ENTITY ns_sfw "http://ns.adobe.com/SaveForWeb/1.0/">
	<!ENTITY ns_custom "http://ns.adobe.com/GenericCustomNamespace/1.0/">
	<!ENTITY ns_adobe_xpath "http://ns.adobe.com/XPath/1.0/">
]>
<svg version="1.1" id="Layer_1" xmlns:x="&ns_extend;" xmlns:i="&ns_ai;" xmlns:graph="&ns_graphs;"
	 xmlns="http://www.w3.org/2000/svg" xmlns:xlink="http://www.w3.org/1999/xlink" x="0px" y="0px" width="100px" height="100px"
	 viewBox="0 0 100 100" enable-background="new 0 0 100 100" xml:space="preserve">
<metadata>
	<sfw  xmlns="&ns_sfw;">
		<slices></slices>
		<sliceSourceBounds  width="856.666" height="100" bottomLeftOrigin="true" y="-100" x="0"></sliceSourceBounds>
	</sfw>
</metadata>
<g>
	<path d="M50,0C22.385,0,0,22.389,0,50c0,27.615,22.385,50,50,50c27.611,0,50-22.385,50-50C100,22.389,77.611,0,50,0z"/>
	<path fill="#FFFFFF" d="M68.473,33.264c-0.316-1.311-0.842-2.314-1.594-3c-0.759-0.69-1.845-1.315-3.281-1.88
		c-1.446-0.621-3.5-1.186-6.187-1.685c-2.692-0.503-5.145-0.751-7.368-0.751c-2.214,0-4.667,0.248-7.358,0.751
		c-2.688,0.499-4.749,1.063-6.182,1.685c-1.441,0.564-2.536,1.189-3.291,1.88c-0.747,0.686-1.25,1.688-1.498,3l-1.871,15v20.917
		h2.904v1.871c0,1.255,0.387,2.123,1.172,2.626c0.773,0.504,1.581,0.504,2.389,0c0.815-0.503,1.224-1.371,1.224-2.626v-1.871h24
		v1.871c0,1.255,0.485,2.123,1.454,2.626c0.964,0.504,1.923,0.504,2.86,0c0.942-0.503,1.402-1.371,1.402-2.626v-1.871h2.909V48.264
		L68.473,33.264z M40.059,29.561c0.251-0.469,0.694-0.703,1.315-0.703h17.83v0.004c0.772,0,1.402,0.625,1.402,1.402
		c0,0.772-0.63,1.402-1.402,1.402v0.004h-17.83c-0.621,0-1.064-0.234-1.315-0.708C39.811,30.494,39.811,30.029,40.059,29.561z
		 M33.212,47.89l1.598-11.439c0.126-0.625,0.66-0.938,1.598-0.938H63.88c0.941,0,1.463,0.312,1.593,0.938l1.594,11.626
		c0.056,0.187,0.091,0.312,0.091,0.374c0,0.443-0.156,0.799-0.465,1.081c-0.312,0.282-0.716,0.425-1.22,0.425H34.81
		c-0.504,0-0.898-0.161-1.22-0.473c-0.312-0.312-0.465-0.716-0.465-1.22C33.125,48.142,33.155,48.016,33.212,47.89z M38.183,61.908
		c-0.621,0.595-1.354,0.895-2.201,0.895s-1.58-0.3-2.205-0.895c-0.621-0.59-0.93-1.311-0.93-2.157c0-0.843,0.309-1.559,0.93-2.149
		c0.625-0.599,1.358-0.895,2.205-0.895s1.58,0.296,2.201,0.895c0.625,0.591,0.938,1.307,0.938,2.149
		C39.12,60.598,38.808,61.318,38.183,61.908z M66.497,61.908c-0.62,0.595-1.358,0.895-2.201,0.895c-0.842,0-1.575-0.3-2.201-0.895
		c-0.62-0.59-0.941-1.311-0.941-2.157c0-0.843,0.321-1.559,0.941-2.149c0.626-0.599,1.359-0.895,2.201-0.895
		c0.843,0,1.581,0.296,2.201,0.895c0.625,0.591,0.946,1.307,0.946,2.149C67.443,60.598,67.122,61.318,66.497,61.908z"/>
</g>
</svg>
