<?xml version="1.0" encoding="utf-8"?>
<!-- Generator: Adobe Illustrator 16.0.0, SVG Export Plug-In . SVG Version: 6.00 Build 0)  -->
<!DOCTYPE svg PUBLIC "-//W3C//DTD SVG 1.1//EN" "http://www.w3.org/Graphics/SVG/1.1/DTD/svg11.dtd" [
	<!ENTITY ns_extend "http://ns.adobe.com/Extensibility/1.0/">
	<!ENTITY ns_ai "http://ns.adobe.com/AdobeIllustrator/10.0/">
	<!ENTITY ns_graphs "http://ns.adobe.com/Graphs/1.0/">
	<!ENTITY ns_vars "http://ns.adobe.com/Variables/1.0/">
	<!ENTITY ns_imrep "http://ns.adobe.com/ImageReplacement/1.0/">
	<!ENTITY ns_sfw "http://ns.adobe.com/SaveForWeb/1.0/">
	<!ENTITY ns_custom "http://ns.adobe.com/GenericCustomNamespace/1.0/">
	<!ENTITY ns_adobe_xpath "http://ns.adobe.com/XPath/1.0/">
]>
<svg version="1.1" id="Layer_1" xmlns:x="&ns_extend;" xmlns:i="&ns_ai;" xmlns:graph="&ns_graphs;"
	 xmlns="http://www.w3.org/2000/svg" xmlns:xlink="http://www.w3.org/1999/xlink" x="0px" y="0px" width="100px" height="100px"
	 viewBox="0 0 100 100" enable-background="new 0 0 100 100" xml:space="preserve">
<metadata>
	<sfw  xmlns="&ns_sfw;">
		<slices></slices>
		<sliceSourceBounds  width="856.666" height="100" bottomLeftOrigin="true" y="-100" x="0"></sliceSourceBounds>
	</sfw>
</metadata>
<g>
	<path fill="#006838" d="M49.998,0.001C22.384,0.001,0,22.387,0,50c0,27.611,22.384,49.999,49.998,49.999
		C77.611,99.999,100,77.611,100,50C100,22.387,77.611,0.001,49.998,0.001z"/>
	<path fill="#FFFFFF" d="M68.471,33.262c-0.314-1.313-0.842-2.313-1.593-3c-0.758-0.69-1.844-1.317-3.282-1.878
		c-1.443-0.62-3.497-1.187-6.185-1.684c-2.693-0.504-5.146-0.754-7.367-0.754c-2.214,0-4.669,0.25-7.36,0.754
		c-2.686,0.497-4.747,1.063-6.183,1.684c-1.438,0.561-2.533,1.188-3.288,1.878c-0.749,0.687-1.25,1.687-1.498,3l-1.873,15.001
		v20.912h2.904v1.872c0,1.255,0.389,2.123,1.172,2.627c0.775,0.504,1.583,0.504,2.388,0c0.816-0.504,1.225-1.372,1.225-2.627v-1.872
		h24.001v1.872c0,1.255,0.486,2.123,1.452,2.627c0.964,0.504,1.923,0.504,2.863,0c0.941-0.504,1.402-1.372,1.402-2.627v-1.872h2.908
		V48.263L68.471,33.262z M40.059,29.561c0.252-0.471,0.692-0.703,1.313-0.703h17.83v0.004c0.774,0,1.402,0.626,1.402,1.4
		c0,0.775-0.628,1.4-1.402,1.4v0.007h-17.83c-0.621,0-1.062-0.232-1.313-0.706C39.81,30.494,39.81,30.025,40.059,29.561z
		 M33.213,47.888l1.596-11.439c0.125-0.627,0.662-0.939,1.6-0.939h27.47c0.941,0,1.465,0.312,1.595,0.939l1.592,11.624
		c0.059,0.19,0.093,0.314,0.093,0.378c0,0.44-0.156,0.794-0.464,1.081c-0.315,0.281-0.717,0.421-1.221,0.421H34.809
		c-0.502,0-0.899-0.156-1.221-0.469c-0.312-0.312-0.464-0.719-0.464-1.221C33.124,48.138,33.154,48.012,33.213,47.888z
		 M38.182,61.907c-0.621,0.591-1.354,0.891-2.199,0.891c-0.849,0-1.58-0.3-2.207-0.891c-0.621-0.595-0.93-1.315-0.93-2.161
		c0-0.843,0.309-1.559,0.93-2.149c0.627-0.595,1.358-0.894,2.207-0.894c0.845,0,1.578,0.299,2.199,0.894
		c0.625,0.591,0.938,1.307,0.938,2.149C39.119,60.592,38.807,61.312,38.182,61.907z M66.498,61.907
		c-0.623,0.591-1.359,0.891-2.201,0.891c-0.843,0-1.578-0.3-2.201-0.891c-0.621-0.595-0.942-1.315-0.942-2.161
		c0-0.843,0.321-1.559,0.942-2.149c0.623-0.595,1.358-0.894,2.201-0.894c0.842,0,1.578,0.299,2.201,0.894
		c0.625,0.591,0.943,1.307,0.943,2.149C67.441,60.592,67.123,61.312,66.498,61.907z"/>
</g>
</svg>
